<?xml version="1.0" encoding="utf-8"?>
<!-- Generator: Adobe Illustrator 16.0.3, SVG Export Plug-In . SVG Version: 6.00 Build 0)  -->
<!DOCTYPE svg PUBLIC "-//W3C//DTD SVG 1.1//EN" "http://www.w3.org/Graphics/SVG/1.1/DTD/svg11.dtd">
<svg version="1.1" id="Layer_1" xmlns="http://www.w3.org/2000/svg" xmlns:xlink="http://www.w3.org/1999/xlink" x="0px" y="0px"
	 width="320.667px" height="346.667px" viewBox="0 0 320.667 346.667" enable-background="new 0 0 320.667 346.667"
	 xml:space="preserve">
<path fill="none" stroke="#C9D4E9" stroke-miterlimit="10" d="M239.242,80.273c9.809,0,17.764,7.422,17.764,16.578v101.233
	c0,9.156-7.955,16.579-17.764,16.579c-9.81,0-17.764-7.422-17.764-16.579v-45.175c0,0,0.947-8.074-7.933-8.074
	c-8.882,0-8.391,8.074-8.391,8.074v109.763c0,9.155-8.036,16.578-17.844,16.578c-9.81,0-17.845-7.423-17.845-16.578V152.909
	c0,0-0.105-7.863-9.441-7.863c-9.337,0-9.443,7.863-9.443,7.863v170.879c0,9.155-8.114,16.578-17.924,16.578
	c-9.809,0-17.924-7.423-17.924-16.578V188.616c0,0-0.419-7.651-8.39-7.651s-7.934,7.651-7.934,7.651v65.039
	c0,9.155-7.955,16.577-17.764,16.577s-17.764-7.422-17.764-16.577v-65.039c0,0-1.097-7.013-9.75-7.013s-9.293,7.013-9.293,7.013
	v20.404c0,9.156-7.956,16.578-17.764,16.578c-9.809,0-17.764-7.422-17.764-16.578v-71.413c0-9.156,7.955-16.579,17.764-16.579
	c9.809,0,17.764,7.423,17.764,16.579v22.954c0,0-0.269,7.651,9.75,7.651c10.702,0,9.293-7.651,9.293-7.651V92.973
	c0-9.156,7.955-16.578,17.764-16.578s17.764,7.422,17.764,16.578v67.588c0,0,0.193,6.802,7.934,6.802s8.39-6.802,8.39-6.802V22.838
	c0-9.156,8.115-16.578,17.924-16.578c9.81,0,17.924,7.422,17.924,16.578v102.015c0,0-0.348,7.229,8.988,7.229
	c9.338,0,9.896-7.229,9.896-7.229V83.162c0-9.156,8.035-16.578,17.845-16.578c9.808,0,17.844,7.422,17.844,16.578v41.691
	c0,0-0.036,8.078,8.391,8.078s7.933-8.078,7.933-8.078V96.851C221.478,87.695,229.432,80.273,239.242,80.273"/>
<path fill="none" stroke="#C9D4E9" stroke-miterlimit="10" d="M292.694,140.794c-9.81,0-17.765,7.423-17.765,16.579v31.88
	c0,9.156,7.955,16.579,17.765,16.579s17.763-7.422,17.763-16.579v-31.88C310.457,148.217,302.503,140.794,292.694,140.794"/>
</svg>
