<?xml version="1.0" encoding="utf-8"?>
<!-- Generator: Adobe Illustrator 16.0.3, SVG Export Plug-In . SVG Version: 6.00 Build 0)  -->
<!DOCTYPE svg PUBLIC "-//W3C//DTD SVG 1.1//EN" "http://www.w3.org/Graphics/SVG/1.1/DTD/svg11.dtd">
<svg version="1.1" id="Layer_1" xmlns="http://www.w3.org/2000/svg" xmlns:xlink="http://www.w3.org/1999/xlink" x="0px" y="0px"
	 width="474.101px" height="526.04px" viewBox="0 0 474.101 526.04" enable-background="new 0 0 474.101 526.04"
	 xml:space="preserve">
<path fill="none" stroke="#2753A9" stroke-miterlimit="10" d="M361.827,117.645c15.327,0,27.756,11.598,27.756,25.904v158.176
	c0,14.306-12.429,25.904-27.756,25.904s-27.756-11.599-27.756-25.904v-70.586c0,0,1.481-12.616-12.395-12.616
	s-13.11,12.616-13.11,12.616v171.505c0,14.306-12.556,25.903-27.881,25.903c-15.327,0-27.882-11.598-27.882-25.903V231.139
	c0,0-0.165-12.286-14.753-12.286c-14.589,0-14.754,12.286-14.754,12.286v266.998c0,14.306-12.679,25.903-28.006,25.903
	c-15.326,0-28.006-11.598-28.006-25.903V286.931c0,0-0.655-11.955-13.109-11.955c-12.454,0-12.396,11.955-12.396,11.955v101.622
	c0,14.306-12.43,25.902-27.756,25.902c-15.326,0-27.756-11.597-27.756-25.902V286.931c0,0-1.713-10.959-15.235-10.959
	c-13.521,0-14.521,10.959-14.521,10.959v31.882c0,14.306-12.43,25.903-27.756,25.903C13.429,344.716,1,333.118,1,318.813V207.229
	c0-14.306,12.429-25.904,27.756-25.904c15.326,0,27.756,11.598,27.756,25.904v35.866c0,0-0.419,11.955,15.235,11.955
	c16.721,0,14.521-11.955,14.521-11.955V137.488c0-14.306,12.43-25.904,27.756-25.904c15.326,0,27.756,11.598,27.756,25.904v105.606
	c0,0,0.301,10.628,12.396,10.628c12.095,0,13.109-10.628,13.109-10.628V27.903C167.285,13.598,179.965,2,195.291,2
	c15.327,0,28.006,11.598,28.006,25.903v159.398c0,0-0.544,11.294,14.045,11.294c14.588,0,15.462-11.294,15.462-11.294V122.16
	c0-14.306,12.555-25.904,27.882-25.904c15.325,0,27.881,11.598,27.881,25.904v65.142c0,0-0.057,12.622,13.11,12.622
	c13.166,0,12.395-12.622,12.395-12.622v-43.753C334.071,129.243,346.5,117.645,361.827,117.645"/>
<path fill="none" stroke="#2753A9" stroke-miterlimit="10" d="M445.346,212.209c-15.327,0-27.756,11.598-27.756,25.904v49.813
	c0,14.307,12.429,25.904,27.756,25.904s27.756-11.598,27.756-25.904v-49.813C473.102,223.807,460.673,212.209,445.346,212.209"/>
</svg>
